<mxfile host="app.diagrams.net" modified="2023-12-13T14:03:08.223Z" agent="Mozilla/5.0 (Macintosh; Intel Mac OS X 10_15_7) AppleWebKit/537.36 (KHTML, like Gecko) Chrome/120.0.0.0 Safari/537.36" etag="bOShT4XnAKCFpkiAQho5" version="22.1.8" type="device">
  <diagram name="Page-1" id="b520641d-4fe3-3701-9064-5fc419738815">
    <mxGraphModel dx="3265" dy="1905" grid="1" gridSize="10" guides="1" tooltips="1" connect="1" arrows="1" fold="1" page="1" pageScale="1" pageWidth="1100" pageHeight="850" background="none" math="0" shadow="0">
      <root>
        <mxCell id="0" />
        <mxCell id="1" parent="0" />
        <mxCell id="Svbovm_mGbTtl8Jwr6Qd-7" value="" style="rounded=0;whiteSpace=wrap;html=1;" vertex="1" parent="1">
          <mxGeometry x="1330" y="185" width="240" height="270" as="geometry" />
        </mxCell>
        <mxCell id="Svbovm_mGbTtl8Jwr6Qd-3" value="" style="rounded=0;whiteSpace=wrap;html=1;" vertex="1" parent="1">
          <mxGeometry x="1340" y="225" width="217.5" height="190" as="geometry" />
        </mxCell>
        <mxCell id="Svbovm_mGbTtl8Jwr6Qd-5" value="" style="rounded=0;whiteSpace=wrap;html=1;" vertex="1" parent="1">
          <mxGeometry x="1340" y="195" width="220" height="20" as="geometry" />
        </mxCell>
        <mxCell id="Svbovm_mGbTtl8Jwr6Qd-21" value="&lt;font style=&quot;font-size: 8px;&quot;&gt;Sort section&lt;/font&gt;" style="text;strokeColor=none;fillColor=none;align=left;verticalAlign=middle;spacingLeft=4;spacingRight=4;overflow=hidden;points=[[0,0.5],[1,0.5]];portConstraint=eastwest;rotatable=0;whiteSpace=wrap;html=1;" vertex="1" parent="1">
          <mxGeometry x="1420" y="190" width="80" height="30" as="geometry" />
        </mxCell>
        <mxCell id="Svbovm_mGbTtl8Jwr6Qd-22" value="" style="rounded=0;whiteSpace=wrap;html=1;" vertex="1" parent="1">
          <mxGeometry x="1522.5" y="425" width="40" height="20" as="geometry" />
        </mxCell>
        <mxCell id="Svbovm_mGbTtl8Jwr6Qd-23" value="&lt;font style=&quot;font-size: 7px;&quot;&gt;Submit btn&lt;/font&gt;" style="text;strokeColor=none;fillColor=none;align=left;verticalAlign=middle;spacingLeft=4;spacingRight=4;overflow=hidden;points=[[0,0.5],[1,0.5]];portConstraint=eastwest;rotatable=0;whiteSpace=wrap;html=1;" vertex="1" parent="1">
          <mxGeometry x="1520" y="415" width="50" height="30" as="geometry" />
        </mxCell>
        <mxCell id="Svbovm_mGbTtl8Jwr6Qd-24" value="" style="rounded=0;whiteSpace=wrap;html=1;" vertex="1" parent="1">
          <mxGeometry x="1335" y="630" width="220" height="120" as="geometry" />
        </mxCell>
        <mxCell id="Svbovm_mGbTtl8Jwr6Qd-25" value="&lt;font style=&quot;font-size: 14px;&quot;&gt;Event name&lt;/font&gt;" style="text;strokeColor=none;fillColor=none;align=left;verticalAlign=middle;spacingLeft=4;spacingRight=4;overflow=hidden;points=[[0,0.5],[1,0.5]];portConstraint=eastwest;rotatable=0;whiteSpace=wrap;html=1;" vertex="1" parent="1">
          <mxGeometry x="1345" y="630" width="110" height="30" as="geometry" />
        </mxCell>
        <mxCell id="Svbovm_mGbTtl8Jwr6Qd-26" value="&lt;font style=&quot;font-size: 10px;&quot;&gt;Start time&lt;/font&gt;" style="text;strokeColor=none;fillColor=none;align=left;verticalAlign=middle;spacingLeft=4;spacingRight=4;overflow=hidden;points=[[0,0.5],[1,0.5]];portConstraint=eastwest;rotatable=0;whiteSpace=wrap;html=1;" vertex="1" parent="1">
          <mxGeometry x="1345" y="675" width="80" height="30" as="geometry" />
        </mxCell>
        <mxCell id="Svbovm_mGbTtl8Jwr6Qd-27" value="&lt;font style=&quot;font-size: 10px;&quot;&gt;End time&lt;/font&gt;" style="text;strokeColor=none;fillColor=none;align=left;verticalAlign=middle;spacingLeft=4;spacingRight=4;overflow=hidden;points=[[0,0.5],[1,0.5]];portConstraint=eastwest;rotatable=0;whiteSpace=wrap;html=1;" vertex="1" parent="1">
          <mxGeometry x="1345" y="690" width="80" height="30" as="geometry" />
        </mxCell>
        <mxCell id="Svbovm_mGbTtl8Jwr6Qd-28" value="&lt;font style=&quot;font-size: 10px;&quot;&gt;Event category&lt;/font&gt;" style="text;strokeColor=none;fillColor=none;align=left;verticalAlign=middle;spacingLeft=4;spacingRight=4;overflow=hidden;points=[[0,0.5],[1,0.5]];portConstraint=eastwest;rotatable=0;whiteSpace=wrap;html=1;" vertex="1" parent="1">
          <mxGeometry x="1345" y="650" width="100" height="30" as="geometry" />
        </mxCell>
        <mxCell id="Svbovm_mGbTtl8Jwr6Qd-29" value="" style="rounded=0;whiteSpace=wrap;html=1;" vertex="1" parent="1">
          <mxGeometry x="1455" y="710" width="90" height="30" as="geometry" />
        </mxCell>
        <mxCell id="Svbovm_mGbTtl8Jwr6Qd-30" value="&lt;font style=&quot;font-size: 10px;&quot;&gt;Select / Remove&lt;/font&gt;" style="text;strokeColor=none;fillColor=none;align=left;verticalAlign=middle;spacingLeft=4;spacingRight=4;overflow=hidden;points=[[0,0.5],[1,0.5]];portConstraint=eastwest;rotatable=0;whiteSpace=wrap;html=1;" vertex="1" parent="1">
          <mxGeometry x="1455" y="710" width="100" height="30" as="geometry" />
        </mxCell>
        <mxCell id="Svbovm_mGbTtl8Jwr6Qd-31" value="" style="rounded=0;whiteSpace=wrap;html=1;" vertex="1" parent="1">
          <mxGeometry x="1685" y="626.25" width="330" height="50" as="geometry" />
        </mxCell>
        <mxCell id="Svbovm_mGbTtl8Jwr6Qd-32" value="Sort by" style="text;strokeColor=none;fillColor=none;align=left;verticalAlign=middle;spacingLeft=4;spacingRight=4;overflow=hidden;points=[[0,0.5],[1,0.5]];portConstraint=eastwest;rotatable=0;whiteSpace=wrap;html=1;" vertex="1" parent="1">
          <mxGeometry x="1695" y="636.25" width="50" height="30" as="geometry" />
        </mxCell>
        <mxCell id="Svbovm_mGbTtl8Jwr6Qd-33" value="" style="rounded=1;whiteSpace=wrap;html=1;" vertex="1" parent="1">
          <mxGeometry x="1755" y="641.25" width="60" height="20" as="geometry" />
        </mxCell>
        <mxCell id="Svbovm_mGbTtl8Jwr6Qd-34" value="" style="rounded=1;whiteSpace=wrap;html=1;" vertex="1" parent="1">
          <mxGeometry x="1825" y="641.25" width="60" height="20" as="geometry" />
        </mxCell>
        <mxCell id="Svbovm_mGbTtl8Jwr6Qd-35" value="" style="rounded=1;whiteSpace=wrap;html=1;" vertex="1" parent="1">
          <mxGeometry x="1895" y="641.25" width="60" height="20" as="geometry" />
        </mxCell>
        <mxCell id="Svbovm_mGbTtl8Jwr6Qd-37" value="" style="rounded=1;whiteSpace=wrap;html=1;" vertex="1" parent="1">
          <mxGeometry x="1965" y="641.25" width="20" height="20" as="geometry" />
        </mxCell>
        <mxCell id="Svbovm_mGbTtl8Jwr6Qd-38" value="X" style="text;strokeColor=none;fillColor=none;align=left;verticalAlign=middle;spacingLeft=4;spacingRight=4;overflow=hidden;points=[[0,0.5],[1,0.5]];portConstraint=eastwest;rotatable=0;whiteSpace=wrap;html=1;" vertex="1" parent="1">
          <mxGeometry x="1965" y="636.25" width="20" height="30" as="geometry" />
        </mxCell>
        <mxCell id="Svbovm_mGbTtl8Jwr6Qd-40" value="&lt;font style=&quot;font-size: 6px;&quot;&gt;Selection Label&lt;/font&gt;" style="text;strokeColor=none;fillColor=none;align=left;verticalAlign=top;spacingLeft=4;spacingRight=4;overflow=hidden;rotatable=0;points=[[0,0.5],[1,0.5]];portConstraint=eastwest;whiteSpace=wrap;html=1;" vertex="1" parent="1">
          <mxGeometry x="1755" y="636.25" width="60" height="26" as="geometry" />
        </mxCell>
        <mxCell id="Svbovm_mGbTtl8Jwr6Qd-41" value="&lt;font style=&quot;font-size: 6px;&quot;&gt;Selection Label&lt;/font&gt;" style="text;strokeColor=none;fillColor=none;align=left;verticalAlign=top;spacingLeft=4;spacingRight=4;overflow=hidden;rotatable=0;points=[[0,0.5],[1,0.5]];portConstraint=eastwest;whiteSpace=wrap;html=1;" vertex="1" parent="1">
          <mxGeometry x="1825" y="635.25" width="60" height="26" as="geometry" />
        </mxCell>
        <mxCell id="Svbovm_mGbTtl8Jwr6Qd-42" value="&lt;font style=&quot;font-size: 6px;&quot;&gt;Selection Label&lt;/font&gt;" style="text;strokeColor=none;fillColor=none;align=left;verticalAlign=top;spacingLeft=4;spacingRight=4;overflow=hidden;rotatable=0;points=[[0,0.5],[1,0.5]];portConstraint=eastwest;whiteSpace=wrap;html=1;" vertex="1" parent="1">
          <mxGeometry x="1895" y="635.25" width="60" height="26" as="geometry" />
        </mxCell>
        <mxCell id="Svbovm_mGbTtl8Jwr6Qd-44" value="" style="rounded=1;whiteSpace=wrap;html=1;" vertex="1" parent="1">
          <mxGeometry x="1682.5" y="725" width="90" height="30" as="geometry" />
        </mxCell>
        <mxCell id="Svbovm_mGbTtl8Jwr6Qd-45" value="&lt;font style=&quot;font-size: 10px;&quot;&gt;Label text&lt;/font&gt;" style="text;strokeColor=none;fillColor=none;align=left;verticalAlign=middle;spacingLeft=4;spacingRight=4;overflow=hidden;points=[[0,0.5],[1,0.5]];portConstraint=eastwest;rotatable=0;whiteSpace=wrap;html=1;" vertex="1" parent="1">
          <mxGeometry x="1692.5" y="727.5" width="80" height="30" as="geometry" />
        </mxCell>
        <mxCell id="Svbovm_mGbTtl8Jwr6Qd-46" value="" style="shape=singleArrow;direction=north;whiteSpace=wrap;html=1;" vertex="1" parent="1">
          <mxGeometry x="1752.5" y="735" width="5" height="15" as="geometry" />
        </mxCell>
        <mxCell id="Svbovm_mGbTtl8Jwr6Qd-48" value="&lt;font style=&quot;font-size: 15px;&quot;&gt;Event Card&lt;/font&gt;" style="text;strokeColor=none;fillColor=none;align=left;verticalAlign=middle;spacingLeft=4;spacingRight=4;overflow=hidden;points=[[0,0.5],[1,0.5]];portConstraint=eastwest;rotatable=0;whiteSpace=wrap;html=1;" vertex="1" parent="1">
          <mxGeometry x="1330" y="590" width="140" height="30" as="geometry" />
        </mxCell>
        <mxCell id="Svbovm_mGbTtl8Jwr6Qd-50" value="&lt;font style=&quot;font-size: 15px;&quot;&gt;Selection Label&lt;/font&gt;" style="text;strokeColor=none;fillColor=none;align=left;verticalAlign=middle;spacingLeft=4;spacingRight=4;overflow=hidden;points=[[0,0.5],[1,0.5]];portConstraint=eastwest;rotatable=0;whiteSpace=wrap;html=1;" vertex="1" parent="1">
          <mxGeometry x="1675" y="695" width="140" height="30" as="geometry" />
        </mxCell>
        <mxCell id="Svbovm_mGbTtl8Jwr6Qd-51" value="&lt;font style=&quot;font-size: 15px;&quot;&gt;Sort Options&lt;/font&gt;" style="text;strokeColor=none;fillColor=none;align=left;verticalAlign=middle;spacingLeft=4;spacingRight=4;overflow=hidden;points=[[0,0.5],[1,0.5]];portConstraint=eastwest;rotatable=0;whiteSpace=wrap;html=1;" vertex="1" parent="1">
          <mxGeometry x="1680" y="591.25" width="110" height="30" as="geometry" />
        </mxCell>
        <mxCell id="Svbovm_mGbTtl8Jwr6Qd-52" value="" style="rounded=0;whiteSpace=wrap;html=1;" vertex="1" parent="1">
          <mxGeometry x="412.5" y="540" width="120" height="50" as="geometry" />
        </mxCell>
        <mxCell id="Svbovm_mGbTtl8Jwr6Qd-53" value="&lt;font style=&quot;font-size: 12px;&quot;&gt;Error Page&lt;/font&gt;" style="text;strokeColor=none;fillColor=none;align=left;verticalAlign=middle;spacingLeft=4;spacingRight=4;overflow=hidden;points=[[0,0.5],[1,0.5]];portConstraint=eastwest;rotatable=0;whiteSpace=wrap;html=1;" vertex="1" parent="1">
          <mxGeometry x="435" y="550" width="130" height="30" as="geometry" />
        </mxCell>
        <mxCell id="Svbovm_mGbTtl8Jwr6Qd-58" value="&lt;font style=&quot;font-size: 15px;&quot;&gt;Event Registry Content&lt;/font&gt;" style="text;strokeColor=none;fillColor=none;align=left;verticalAlign=middle;spacingLeft=4;spacingRight=4;overflow=hidden;points=[[0,0.5],[1,0.5]];portConstraint=eastwest;rotatable=0;whiteSpace=wrap;html=1;" vertex="1" parent="1">
          <mxGeometry x="1330" y="140" width="190" height="30" as="geometry" />
        </mxCell>
        <mxCell id="Svbovm_mGbTtl8Jwr6Qd-66" style="edgeStyle=orthogonalEdgeStyle;rounded=0;orthogonalLoop=1;jettySize=auto;html=1;" edge="1" parent="1" source="Svbovm_mGbTtl8Jwr6Qd-59" target="Svbovm_mGbTtl8Jwr6Qd-65">
          <mxGeometry relative="1" as="geometry" />
        </mxCell>
        <mxCell id="Svbovm_mGbTtl8Jwr6Qd-59" value="Event list api" style="rounded=0;whiteSpace=wrap;html=1;" vertex="1" parent="1">
          <mxGeometry x="187.5" y="130" width="70" height="40" as="geometry" />
        </mxCell>
        <mxCell id="Svbovm_mGbTtl8Jwr6Qd-80" style="edgeStyle=orthogonalEdgeStyle;rounded=0;orthogonalLoop=1;jettySize=auto;html=1;exitX=1.011;exitY=0.303;exitDx=0;exitDy=0;exitPerimeter=0;" edge="1" parent="1" source="Svbovm_mGbTtl8Jwr6Qd-133">
          <mxGeometry relative="1" as="geometry">
            <mxPoint x="560" y="285" as="targetPoint" />
            <mxPoint x="287.5" y="285.0232558139536" as="sourcePoint" />
          </mxGeometry>
        </mxCell>
        <UserObject label="&lt;font style=&quot;font-size: 10px;&quot;&gt;Error&lt;/font&gt;" placeholders="1" name="Variable" id="Svbovm_mGbTtl8Jwr6Qd-63">
          <mxCell style="text;html=1;strokeColor=none;fillColor=none;align=center;verticalAlign=middle;whiteSpace=wrap;overflow=hidden;rotation=270;" vertex="1" parent="1">
            <mxGeometry x="170" y="205" width="80" height="20" as="geometry" />
          </mxCell>
        </UserObject>
        <mxCell id="Svbovm_mGbTtl8Jwr6Qd-71" style="edgeStyle=orthogonalEdgeStyle;rounded=0;orthogonalLoop=1;jettySize=auto;html=1;entryX=0.5;entryY=0;entryDx=0;entryDy=0;" edge="1" parent="1" source="Svbovm_mGbTtl8Jwr6Qd-65" target="Svbovm_mGbTtl8Jwr6Qd-69">
          <mxGeometry relative="1" as="geometry" />
        </mxCell>
        <mxCell id="Svbovm_mGbTtl8Jwr6Qd-65" value="&lt;font style=&quot;font-size: 10px;&quot;&gt;Registered list api&lt;/font&gt;" style="rounded=0;whiteSpace=wrap;html=1;" vertex="1" parent="1">
          <mxGeometry x="347.5" y="130" width="70" height="40" as="geometry" />
        </mxCell>
        <UserObject label="&lt;font style=&quot;font-size: 9px;&quot;&gt;Success&lt;/font&gt;" placeholders="1" name="Variable" id="Svbovm_mGbTtl8Jwr6Qd-68">
          <mxCell style="text;html=1;strokeColor=none;fillColor=none;align=center;verticalAlign=middle;whiteSpace=wrap;overflow=hidden;rotation=0;" vertex="1" parent="1">
            <mxGeometry x="267.5" y="130" width="80" height="20" as="geometry" />
          </mxCell>
        </UserObject>
        <mxCell id="Svbovm_mGbTtl8Jwr6Qd-69" value="&lt;font style=&quot;font-size: 7px;&quot;&gt;Adding data for ui (time slot in epoch)&lt;/font&gt;" style="rounded=0;whiteSpace=wrap;html=1;" vertex="1" parent="1">
          <mxGeometry x="347.5" y="195" width="70" height="30" as="geometry" />
        </mxCell>
        <mxCell id="Svbovm_mGbTtl8Jwr6Qd-72" style="edgeStyle=orthogonalEdgeStyle;rounded=0;orthogonalLoop=1;jettySize=auto;html=1;entryX=0.653;entryY=-0.003;entryDx=0;entryDy=0;entryPerimeter=0;" edge="1" parent="1" source="Svbovm_mGbTtl8Jwr6Qd-69">
          <mxGeometry relative="1" as="geometry">
            <mxPoint x="256.27" y="259.85" as="targetPoint" />
          </mxGeometry>
        </mxCell>
        <mxCell id="Svbovm_mGbTtl8Jwr6Qd-73" style="edgeStyle=orthogonalEdgeStyle;rounded=0;orthogonalLoop=1;jettySize=auto;html=1;entryX=0.276;entryY=-0.022;entryDx=0;entryDy=0;entryPerimeter=0;" edge="1" parent="1" source="Svbovm_mGbTtl8Jwr6Qd-59">
          <mxGeometry relative="1" as="geometry">
            <mxPoint x="222.34000000000003" y="258.9" as="targetPoint" />
          </mxGeometry>
        </mxCell>
        <mxCell id="Svbovm_mGbTtl8Jwr6Qd-74" value="App" style="rounded=0;whiteSpace=wrap;html=1;" vertex="1" parent="1">
          <mxGeometry x="565" y="270" width="120" height="60" as="geometry" />
        </mxCell>
        <mxCell id="Svbovm_mGbTtl8Jwr6Qd-96" style="edgeStyle=orthogonalEdgeStyle;rounded=0;orthogonalLoop=1;jettySize=auto;html=1;" edge="1" parent="1" source="Svbovm_mGbTtl8Jwr6Qd-75">
          <mxGeometry relative="1" as="geometry">
            <mxPoint x="470" y="530" as="targetPoint" />
          </mxGeometry>
        </mxCell>
        <mxCell id="Svbovm_mGbTtl8Jwr6Qd-75" value="Event Register Page" style="rounded=0;whiteSpace=wrap;html=1;" vertex="1" parent="1">
          <mxGeometry x="410" y="400" width="120" height="60" as="geometry" />
        </mxCell>
        <mxCell id="Svbovm_mGbTtl8Jwr6Qd-77" value="Some other Page" style="rounded=0;whiteSpace=wrap;html=1;" vertex="1" parent="1">
          <mxGeometry x="580" y="400" width="120" height="60" as="geometry" />
        </mxCell>
        <mxCell id="Svbovm_mGbTtl8Jwr6Qd-78" value="Event Register Page" style="rounded=0;whiteSpace=wrap;html=1;" vertex="1" parent="1">
          <mxGeometry x="770" y="400" width="120" height="60" as="geometry" />
        </mxCell>
        <mxCell id="Svbovm_mGbTtl8Jwr6Qd-81" value="" style="endArrow=block;endFill=1;html=1;edgeStyle=orthogonalEdgeStyle;align=left;verticalAlign=top;rounded=0;exitX=0;exitY=1;exitDx=0;exitDy=0;entryX=0.568;entryY=-0.077;entryDx=0;entryDy=0;entryPerimeter=0;" edge="1" parent="1" source="Svbovm_mGbTtl8Jwr6Qd-74" target="Svbovm_mGbTtl8Jwr6Qd-75">
          <mxGeometry x="-1" relative="1" as="geometry">
            <mxPoint x="240" y="430" as="sourcePoint" />
            <mxPoint x="400" y="430" as="targetPoint" />
            <Array as="points">
              <mxPoint x="600" y="330" />
              <mxPoint x="600" y="365" />
              <mxPoint x="478" y="365" />
            </Array>
          </mxGeometry>
        </mxCell>
        <mxCell id="Svbovm_mGbTtl8Jwr6Qd-84" style="edgeStyle=orthogonalEdgeStyle;rounded=0;orthogonalLoop=1;jettySize=auto;html=1;entryX=0.382;entryY=-0.052;entryDx=0;entryDy=0;entryPerimeter=0;" edge="1" parent="1" source="Svbovm_mGbTtl8Jwr6Qd-74" target="Svbovm_mGbTtl8Jwr6Qd-77">
          <mxGeometry relative="1" as="geometry" />
        </mxCell>
        <mxCell id="Svbovm_mGbTtl8Jwr6Qd-85" value="" style="endArrow=block;endFill=1;html=1;edgeStyle=orthogonalEdgeStyle;align=left;verticalAlign=top;rounded=0;" edge="1" parent="1">
          <mxGeometry x="-1" relative="1" as="geometry">
            <mxPoint x="670" y="330" as="sourcePoint" />
            <mxPoint x="835" y="400" as="targetPoint" />
            <Array as="points">
              <mxPoint x="670" y="361" />
              <mxPoint x="836" y="361" />
              <mxPoint x="836" y="370" />
              <mxPoint x="835" y="370" />
            </Array>
          </mxGeometry>
        </mxCell>
        <mxCell id="Svbovm_mGbTtl8Jwr6Qd-88" value="" style="rounded=0;whiteSpace=wrap;html=1;" vertex="1" parent="1">
          <mxGeometry x="245" y="540" width="120" height="50" as="geometry" />
        </mxCell>
        <mxCell id="Svbovm_mGbTtl8Jwr6Qd-89" value="&lt;font style=&quot;font-size: 12px;&quot;&gt;Loading state&lt;/font&gt;" style="text;strokeColor=none;fillColor=none;align=left;verticalAlign=middle;spacingLeft=4;spacingRight=4;overflow=hidden;points=[[0,0.5],[1,0.5]];portConstraint=eastwest;rotatable=0;whiteSpace=wrap;html=1;" vertex="1" parent="1">
          <mxGeometry x="258.75" y="550" width="130" height="30" as="geometry" />
        </mxCell>
        <mxCell id="Svbovm_mGbTtl8Jwr6Qd-97" value="" style="endArrow=block;endFill=1;html=1;edgeStyle=orthogonalEdgeStyle;align=left;verticalAlign=top;rounded=0;exitX=0.25;exitY=1;exitDx=0;exitDy=0;entryX=0.453;entryY=-0.04;entryDx=0;entryDy=0;entryPerimeter=0;" edge="1" parent="1" source="Svbovm_mGbTtl8Jwr6Qd-75" target="Svbovm_mGbTtl8Jwr6Qd-88">
          <mxGeometry x="-1" relative="1" as="geometry">
            <mxPoint x="450" y="570" as="sourcePoint" />
            <mxPoint x="280" y="520" as="targetPoint" />
            <Array as="points">
              <mxPoint x="450" y="460" />
              <mxPoint x="450" y="510" />
              <mxPoint x="300" y="510" />
              <mxPoint x="300" y="520" />
              <mxPoint x="299" y="520" />
            </Array>
          </mxGeometry>
        </mxCell>
        <mxCell id="Svbovm_mGbTtl8Jwr6Qd-100" value="" style="endArrow=block;endFill=1;html=1;edgeStyle=orthogonalEdgeStyle;align=left;verticalAlign=top;rounded=0;entryX=0.5;entryY=0;entryDx=0;entryDy=0;exitX=0.672;exitY=1.052;exitDx=0;exitDy=0;exitPerimeter=0;" edge="1" parent="1" source="Svbovm_mGbTtl8Jwr6Qd-75">
          <mxGeometry x="-1" relative="1" as="geometry">
            <mxPoint x="490" y="470" as="sourcePoint" />
            <mxPoint x="639.5" y="540" as="targetPoint" />
            <Array as="points">
              <mxPoint x="491" y="510" />
              <mxPoint x="639" y="510" />
            </Array>
          </mxGeometry>
        </mxCell>
        <mxCell id="Svbovm_mGbTtl8Jwr6Qd-106" value="" style="rounded=0;whiteSpace=wrap;html=1;" vertex="1" parent="1">
          <mxGeometry x="1675" y="183.75" width="240" height="220" as="geometry" />
        </mxCell>
        <mxCell id="Svbovm_mGbTtl8Jwr6Qd-107" value="" style="rounded=0;whiteSpace=wrap;html=1;" vertex="1" parent="1">
          <mxGeometry x="1685" y="201.25" width="100" height="190" as="geometry" />
        </mxCell>
        <mxCell id="Svbovm_mGbTtl8Jwr6Qd-108" value="" style="rounded=0;whiteSpace=wrap;html=1;" vertex="1" parent="1">
          <mxGeometry x="1805" y="201.25" width="100" height="190" as="geometry" />
        </mxCell>
        <mxCell id="Svbovm_mGbTtl8Jwr6Qd-110" value="" style="rounded=0;whiteSpace=wrap;html=1;" vertex="1" parent="1">
          <mxGeometry x="1695" y="211.25" width="30" height="60" as="geometry" />
        </mxCell>
        <mxCell id="Svbovm_mGbTtl8Jwr6Qd-111" value="" style="rounded=0;whiteSpace=wrap;html=1;" vertex="1" parent="1">
          <mxGeometry x="1745" y="211.25" width="30" height="60" as="geometry" />
        </mxCell>
        <mxCell id="Svbovm_mGbTtl8Jwr6Qd-112" value="" style="rounded=0;whiteSpace=wrap;html=1;" vertex="1" parent="1">
          <mxGeometry x="1820" y="211.25" width="30" height="60" as="geometry" />
        </mxCell>
        <mxCell id="Svbovm_mGbTtl8Jwr6Qd-113" value="" style="rounded=0;whiteSpace=wrap;html=1;" vertex="1" parent="1">
          <mxGeometry x="1865" y="211.25" width="30" height="60" as="geometry" />
        </mxCell>
        <mxCell id="Svbovm_mGbTtl8Jwr6Qd-114" value="" style="rounded=0;whiteSpace=wrap;html=1;" vertex="1" parent="1">
          <mxGeometry x="1695" y="281.25" width="30" height="60" as="geometry" />
        </mxCell>
        <mxCell id="Svbovm_mGbTtl8Jwr6Qd-115" value="" style="rounded=0;whiteSpace=wrap;html=1;" vertex="1" parent="1">
          <mxGeometry x="1745" y="281.25" width="30" height="60" as="geometry" />
        </mxCell>
        <mxCell id="Svbovm_mGbTtl8Jwr6Qd-116" value="&lt;p style=&quot;line-height: 10%;&quot;&gt;&lt;font style=&quot;font-size: 7px;&quot;&gt;Event &lt;br&gt;&lt;br&gt;&lt;br&gt;card&lt;/font&gt;&lt;/p&gt;" style="text;strokeColor=none;fillColor=none;align=left;verticalAlign=middle;spacingLeft=4;spacingRight=4;overflow=hidden;points=[[0,0.5],[1,0.5]];portConstraint=eastwest;rotatable=0;whiteSpace=wrap;html=1;" vertex="1" parent="1">
          <mxGeometry x="1697.5" y="221.25" width="37.5" height="30" as="geometry" />
        </mxCell>
        <mxCell id="Svbovm_mGbTtl8Jwr6Qd-117" value="&lt;p style=&quot;line-height: 10%;&quot;&gt;&lt;font style=&quot;font-size: 7px;&quot;&gt;Event &lt;br&gt;&lt;br&gt;&lt;br&gt;card&lt;/font&gt;&lt;/p&gt;" style="text;strokeColor=none;fillColor=none;align=left;verticalAlign=middle;spacingLeft=4;spacingRight=4;overflow=hidden;points=[[0,0.5],[1,0.5]];portConstraint=eastwest;rotatable=0;whiteSpace=wrap;html=1;" vertex="1" parent="1">
          <mxGeometry x="1747.5" y="221.25" width="37.5" height="30" as="geometry" />
        </mxCell>
        <mxCell id="Svbovm_mGbTtl8Jwr6Qd-118" value="&lt;p style=&quot;line-height: 10%;&quot;&gt;&lt;font style=&quot;font-size: 7px;&quot;&gt;Event &lt;br&gt;&lt;br&gt;&lt;br&gt;card&lt;/font&gt;&lt;/p&gt;" style="text;strokeColor=none;fillColor=none;align=left;verticalAlign=middle;spacingLeft=4;spacingRight=4;overflow=hidden;points=[[0,0.5],[1,0.5]];portConstraint=eastwest;rotatable=0;whiteSpace=wrap;html=1;" vertex="1" parent="1">
          <mxGeometry x="1820" y="221.25" width="37.5" height="30" as="geometry" />
        </mxCell>
        <mxCell id="Svbovm_mGbTtl8Jwr6Qd-119" value="&lt;p style=&quot;line-height: 10%;&quot;&gt;&lt;font style=&quot;font-size: 7px;&quot;&gt;Event &lt;br&gt;&lt;br&gt;&lt;br&gt;card&lt;/font&gt;&lt;/p&gt;" style="text;strokeColor=none;fillColor=none;align=left;verticalAlign=middle;spacingLeft=4;spacingRight=4;overflow=hidden;points=[[0,0.5],[1,0.5]];portConstraint=eastwest;rotatable=0;whiteSpace=wrap;html=1;" vertex="1" parent="1">
          <mxGeometry x="1867.5" y="221.25" width="37.5" height="30" as="geometry" />
        </mxCell>
        <mxCell id="Svbovm_mGbTtl8Jwr6Qd-120" value="&lt;p style=&quot;line-height: 10%;&quot;&gt;&lt;font style=&quot;font-size: 7px;&quot;&gt;Event &lt;br&gt;&lt;br&gt;&lt;br&gt;card&lt;/font&gt;&lt;/p&gt;" style="text;strokeColor=none;fillColor=none;align=left;verticalAlign=middle;spacingLeft=4;spacingRight=4;overflow=hidden;points=[[0,0.5],[1,0.5]];portConstraint=eastwest;rotatable=0;whiteSpace=wrap;html=1;" vertex="1" parent="1">
          <mxGeometry x="1697.5" y="291.25" width="37.5" height="30" as="geometry" />
        </mxCell>
        <mxCell id="Svbovm_mGbTtl8Jwr6Qd-121" value="&lt;p style=&quot;line-height: 10%;&quot;&gt;&lt;font style=&quot;font-size: 7px;&quot;&gt;Event &lt;br&gt;&lt;br&gt;&lt;br&gt;card&lt;/font&gt;&lt;/p&gt;" style="text;strokeColor=none;fillColor=none;align=left;verticalAlign=middle;spacingLeft=4;spacingRight=4;overflow=hidden;points=[[0,0.5],[1,0.5]];portConstraint=eastwest;rotatable=0;whiteSpace=wrap;html=1;" vertex="1" parent="1">
          <mxGeometry x="1747.5" y="291.25" width="37.5" height="30" as="geometry" />
        </mxCell>
        <mxCell id="Svbovm_mGbTtl8Jwr6Qd-125" value="&lt;font style=&quot;font-size: 15px;&quot;&gt;Event Board&lt;/font&gt;" style="text;strokeColor=none;fillColor=none;align=left;verticalAlign=middle;spacingLeft=4;spacingRight=4;overflow=hidden;points=[[0,0.5],[1,0.5]];portConstraint=eastwest;rotatable=0;whiteSpace=wrap;html=1;" vertex="1" parent="1">
          <mxGeometry x="1675" y="141.25" width="190" height="30" as="geometry" />
        </mxCell>
        <mxCell id="Svbovm_mGbTtl8Jwr6Qd-126" style="edgeStyle=orthogonalEdgeStyle;rounded=0;orthogonalLoop=1;jettySize=auto;html=1;exitX=0.5;exitY=1;exitDx=0;exitDy=0;" edge="1" parent="1" source="Svbovm_mGbTtl8Jwr6Qd-106" target="Svbovm_mGbTtl8Jwr6Qd-106">
          <mxGeometry relative="1" as="geometry" />
        </mxCell>
        <mxCell id="Svbovm_mGbTtl8Jwr6Qd-127" value="Event Board" style="text;strokeColor=none;fillColor=none;align=left;verticalAlign=middle;spacingLeft=4;spacingRight=4;overflow=hidden;points=[[0,0.5],[1,0.5]];portConstraint=eastwest;rotatable=0;whiteSpace=wrap;html=1;" vertex="1" parent="1">
          <mxGeometry x="1407.5" y="300" width="80" height="25" as="geometry" />
        </mxCell>
        <mxCell id="Svbovm_mGbTtl8Jwr6Qd-129" value="Event Registry content" style="swimlane;fontStyle=0;childLayout=stackLayout;horizontal=1;startSize=26;fillColor=none;horizontalStack=0;resizeParent=1;resizeParentMax=0;resizeLast=0;collapsible=1;marginBottom=0;html=1;" vertex="1" parent="1">
          <mxGeometry x="565" y="539.75" width="180" height="130" as="geometry">
            <mxRectangle x="565" y="539.75" width="160" height="30" as="alternateBounds" />
          </mxGeometry>
        </mxCell>
        <mxCell id="Svbovm_mGbTtl8Jwr6Qd-130" value="&lt;font style=&quot;font-size: 9px;&quot;&gt;All events (excluding registered events)&lt;/font&gt;" style="text;strokeColor=none;fillColor=none;align=left;verticalAlign=top;spacingLeft=4;spacingRight=4;overflow=hidden;rotatable=0;points=[[0,0.5],[1,0.5]];portConstraint=eastwest;whiteSpace=wrap;html=1;" vertex="1" parent="Svbovm_mGbTtl8Jwr6Qd-129">
          <mxGeometry y="26" width="180" height="26" as="geometry" />
        </mxCell>
        <mxCell id="Svbovm_mGbTtl8Jwr6Qd-131" value="&lt;font style=&quot;font-size: 9px;&quot;&gt;Registered events&lt;/font&gt;" style="text;strokeColor=none;fillColor=none;align=left;verticalAlign=top;spacingLeft=4;spacingRight=4;overflow=hidden;rotatable=0;points=[[0,0.5],[1,0.5]];portConstraint=eastwest;whiteSpace=wrap;html=1;" vertex="1" parent="Svbovm_mGbTtl8Jwr6Qd-129">
          <mxGeometry y="52" width="180" height="26" as="geometry" />
        </mxCell>
        <mxCell id="Svbovm_mGbTtl8Jwr6Qd-138" value="&lt;font style=&quot;font-size: 9px;&quot;&gt;Handlers to select &amp;amp; deselect an event&lt;/font&gt;" style="text;strokeColor=none;fillColor=none;align=left;verticalAlign=top;spacingLeft=4;spacingRight=4;overflow=hidden;rotatable=0;points=[[0,0.5],[1,0.5]];portConstraint=eastwest;whiteSpace=wrap;html=1;" vertex="1" parent="Svbovm_mGbTtl8Jwr6Qd-129">
          <mxGeometry y="78" width="180" height="26" as="geometry" />
        </mxCell>
        <mxCell id="Svbovm_mGbTtl8Jwr6Qd-132" value="&lt;font style=&quot;font-size: 9px;&quot;&gt;Sort function&lt;/font&gt;" style="text;strokeColor=none;fillColor=none;align=left;verticalAlign=top;spacingLeft=4;spacingRight=4;overflow=hidden;rotatable=0;points=[[0,0.5],[1,0.5]];portConstraint=eastwest;whiteSpace=wrap;html=1;" vertex="1" parent="Svbovm_mGbTtl8Jwr6Qd-129">
          <mxGeometry y="104" width="180" height="26" as="geometry" />
        </mxCell>
        <mxCell id="Svbovm_mGbTtl8Jwr6Qd-133" value="Context" style="swimlane;fontStyle=0;childLayout=stackLayout;horizontal=1;startSize=26;fillColor=none;horizontalStack=0;resizeParent=1;resizeParentMax=0;resizeLast=0;collapsible=1;marginBottom=0;html=1;" vertex="1" parent="1">
          <mxGeometry x="110" y="261" width="180" height="78" as="geometry">
            <mxRectangle x="110" y="261" width="160" height="30" as="alternateBounds" />
          </mxGeometry>
        </mxCell>
        <mxCell id="Svbovm_mGbTtl8Jwr6Qd-134" value="&lt;font style=&quot;font-size: 9px;&quot;&gt;Events api handlers&lt;/font&gt;" style="text;strokeColor=none;fillColor=none;align=left;verticalAlign=top;spacingLeft=4;spacingRight=4;overflow=hidden;rotatable=0;points=[[0,0.5],[1,0.5]];portConstraint=eastwest;whiteSpace=wrap;html=1;" vertex="1" parent="Svbovm_mGbTtl8Jwr6Qd-133">
          <mxGeometry y="26" width="180" height="26" as="geometry" />
        </mxCell>
        <mxCell id="Svbovm_mGbTtl8Jwr6Qd-135" value="&lt;font style=&quot;font-size: 9px;&quot;&gt;Maximum no of events allowed&lt;/font&gt;" style="text;strokeColor=none;fillColor=none;align=left;verticalAlign=top;spacingLeft=4;spacingRight=4;overflow=hidden;rotatable=0;points=[[0,0.5],[1,0.5]];portConstraint=eastwest;whiteSpace=wrap;html=1;" vertex="1" parent="Svbovm_mGbTtl8Jwr6Qd-133">
          <mxGeometry y="52" width="180" height="26" as="geometry" />
        </mxCell>
        <mxCell id="Svbovm_mGbTtl8Jwr6Qd-139" value="&lt;font style=&quot;font-size: 16px;&quot;&gt;Components wireframe&lt;/font&gt;" style="text;strokeColor=none;fillColor=none;align=left;verticalAlign=middle;spacingLeft=4;spacingRight=4;overflow=hidden;points=[[0,0.5],[1,0.5]];portConstraint=eastwest;rotatable=0;whiteSpace=wrap;html=1;" vertex="1" parent="1">
          <mxGeometry x="1522.5" y="70" width="290" height="30" as="geometry" />
        </mxCell>
        <mxCell id="Svbovm_mGbTtl8Jwr6Qd-140" value="&lt;font style=&quot;font-size: 16px;&quot;&gt;Data flow &amp;amp; state handling&lt;/font&gt;" style="text;strokeColor=none;fillColor=none;align=left;verticalAlign=middle;spacingLeft=4;spacingRight=4;overflow=hidden;points=[[0,0.5],[1,0.5]];portConstraint=eastwest;rotatable=0;whiteSpace=wrap;html=1;" vertex="1" parent="1">
          <mxGeometry x="475" y="80" width="210" height="30" as="geometry" />
        </mxCell>
      </root>
    </mxGraphModel>
  </diagram>
</mxfile>
